<svg version="1.1" id="Layer_1" xmlns="http://www.w3.org/2000/svg" x="0px" y="0px"
     width="100%" viewBox="0 0 1024 1024" enable-background="new 0 0 1024 1024" xml:space="preserve">
<path fill="#041A34" opacity="1.000000" stroke="none"
	d="
M469.000000,1025.000000
	C312.666656,1025.000000 156.833328,1025.000000 1.000000,1025.000000
	C1.000000,683.666687 1.000000,342.333344 1.000000,1.000000
	C342.333344,1.000000 683.666687,1.000000 1025.000000,1.000000
	C1025.000000,342.333344 1025.000000,683.666687 1025.000000,1025.000000
	C839.833313,1025.000000 654.666687,1025.000000 469.000000,1025.000000
M624.483826,425.185364
	C635.758484,480.758575 605.142883,535.754211 551.503601,555.724792
	C546.987427,557.406189 545.949524,559.530579 545.957275,563.952881
	C546.078857,632.941467 546.031982,701.930298 546.038513,770.919128
	C546.038696,772.690796 546.203186,774.462524 546.287292,776.159180
	C603.100342,776.159180 659.427002,776.159180 715.587463,776.159180
	C715.587463,747.475708 715.587463,719.429138 715.587463,690.815552
	C688.180725,690.815552 661.278198,690.815552 633.923706,690.815552
	C633.923706,688.273621 633.922241,686.302795 633.923889,684.331970
	C633.942810,662.002319 634.227417,639.667725 633.818848,617.345947
	C633.697205,610.699463 635.777405,606.670593 640.940613,602.387390
	C700.138855,553.279358 724.277893,490.082031 711.195190,414.621796
	C693.337097,311.617126 600.836548,241.757278 496.200684,249.832184
	C393.571838,257.752167 311.634644,345.084381 311.411285,448.076324
	C311.272522,512.055542 337.080170,564.240845 387.219116,604.152405
	C390.656128,606.888367 392.195526,609.618652 392.155640,614.109314
	C391.944061,637.936829 392.080811,661.767334 392.075745,685.596802
	C392.075409,687.215881 391.902039,688.834961 391.776489,691.023438
	C364.557831,691.023438 337.661285,691.023438 310.454468,691.023438
	C310.454468,719.799683 310.454468,747.980957 310.454468,776.305786
	C367.103699,776.305786 423.344452,776.305786 480.164276,776.305786
	C480.164276,774.130127 480.164215,772.337463 480.164215,770.544800
	C480.164398,701.555908 480.119598,632.566956 480.267303,563.578430
	C480.277008,559.044861 479.034760,557.032288 474.611969,555.433655
	C422.434753,536.574280 390.915710,481.658356 401.424377,428.387512
	C411.883820,375.366150 457.388763,336.980499 510.925262,336.018219
	C564.868225,335.048615 611.881226,371.692596 624.483826,425.185364
z"/>
<path fill="#4190C3" opacity="1.000000" stroke="none"
	d="
M624.381836,424.778473
	C611.881226,371.692596 564.868225,335.048615 510.925262,336.018219
	C457.388763,336.980499 411.883820,375.366150 401.424377,428.387512
	C390.915710,481.658356 422.434753,536.574280 474.611969,555.433655
	C479.034760,557.032288 480.277008,559.044861 480.267303,563.578430
	C480.119598,632.566956 480.164398,701.555908 480.164215,770.544800
	C480.164215,772.337463 480.164276,774.130127 480.164276,776.305786
	C423.344452,776.305786 367.103699,776.305786 310.454468,776.305786
	C310.454468,747.980957 310.454468,719.799683 310.454468,691.023438
	C337.661285,691.023438 364.557831,691.023438 391.776489,691.023438
	C391.902039,688.834961 392.075409,687.215881 392.075745,685.596802
	C392.080811,661.767334 391.944061,637.936829 392.155640,614.109314
	C392.195526,609.618652 390.656128,606.888367 387.219116,604.152405
	C337.080170,564.240845 311.272522,512.055542 311.411285,448.076324
	C311.634644,345.084381 393.571838,257.752167 496.200684,249.832184
	C600.836548,241.757278 693.337097,311.617126 711.195190,414.621796
	C724.277893,490.082031 700.138855,553.279358 640.940613,602.387390
	C635.777405,606.670593 633.697205,610.699463 633.818848,617.345947
	C634.227417,639.667725 633.942810,662.002319 633.923889,684.331970
	C633.922241,686.302795 633.923706,688.273621 633.923706,690.815552
	C661.278198,690.815552 688.180725,690.815552 715.587463,690.815552
	C715.587463,719.429138 715.587463,747.475708 715.587463,776.159180
	C659.427002,776.159180 603.100342,776.159180 546.287292,776.159180
	C546.203186,774.462524 546.038696,772.690796 546.038513,770.919128
	C546.031982,701.930298 546.078857,632.941467 545.957275,563.952881
	C545.949524,559.530579 546.987427,557.406189 551.503601,555.724792
	C605.142883,535.754211 635.758484,480.758575 624.381836,424.778473
z"/>
</svg>
